<?xml version="1.0" standalone="no"?>
<!DOCTYPE svg PUBLIC "-//W3C//DTD SVG 20010904//EN"
 "http://www.w3.org/TR/2001/REC-SVG-20010904/DTD/svg10.dtd">
<svg version="1.0" xmlns="http://www.w3.org/2000/svg"
 width="292.000000pt" height="292.000000pt" viewBox="0 0 292.000000 292.000000"
 preserveAspectRatio="xMidYMid meet">
<metadata>
Created by potrace 1.11, written by Peter Selinger 2001-2013
</metadata>
<g transform="translate(0.000000,292.000000) scale(0.100000,-0.100000)"
fill="#000000" stroke="none">
<path d="M985 2375 l-25 -24 0 -911 0 -911 25 -24 c23 -24 29 -25 155 -25 126
0 132 1 155 25 l25 24 0 911 0 911 -25 24 c-23 24 -29 25 -155 25 -126 0 -132
-1 -155 -25z"/>
<path d="M1625 2375 l-25 -24 0 -911 0 -911 25 -24 c23 -24 28 -25 175 -25
147 0 152 1 175 25 l25 24 0 911 0 911 -25 24 c-23 24 -28 25 -175 25 -147 0
-152 -1 -175 -25z"/>
</g>
</svg>
