<svg width="126" height="58" viewBox="0 0 126 58" fill="none" xmlns="http://www.w3.org/2000/svg">
<rect y="4" width="9" height="48" rx="2" fill="#4A4A4A"/>
<path fill-rule="evenodd" clip-rule="evenodd" d="M16 6C16 4.89543 16.8954 4 18 4H24C25.1046 4 26 4.89543 26 6V19.1149V50C26 51.1046 25.1046 52 24 52H18C16.8954 52 16 51.1046 16 50V6Z" fill="#4A4A4A"/>
<path d="M41.992 22V5.992H38.584V22H41.992ZM48.1459 22V14.344C48.6499 13.6 49.9939 13.024 51.0019 13.024C51.3379 13.024 51.6259 13.048 51.8419 13.096V10.12C50.4019 10.12 48.9619 10.96 48.1459 11.992V10.408H45.0979V22H48.1459ZM59.1224 22.288C62.9624 22.288 65.2664 19.504 65.2664 16.192C65.2664 12.904 62.9624 10.12 59.1224 10.12C55.3064 10.12 53.0024 12.904 53.0024 16.192C53.0024 19.504 55.3064 22.288 59.1224 22.288ZM59.1224 19.576C57.2264 19.576 56.1704 18.016 56.1704 16.192C56.1704 14.392 57.2264 12.832 59.1224 12.832C61.0184 12.832 62.0984 14.392 62.0984 16.192C62.0984 18.016 61.0184 19.576 59.1224 19.576ZM71.7036 22.288C74.9196 22.288 76.7196 20.68 76.7196 18.568C76.7196 13.888 69.8556 15.328 69.8556 13.6C69.8556 12.952 70.5756 12.448 71.6796 12.448C73.0956 12.448 74.4156 13.048 75.1116 13.792L76.3356 11.704C75.1836 10.792 73.6236 10.12 71.6556 10.12C68.6076 10.12 66.9036 11.824 66.9036 13.768C66.9036 18.328 73.7916 16.768 73.7916 18.688C73.7916 19.408 73.1676 19.936 71.8476 19.936C70.4076 19.936 68.6796 19.144 67.8396 18.352L66.5196 20.488C67.7436 21.616 69.6876 22.288 71.7036 22.288ZM89.8611 22V13.768C89.8611 11.512 88.6371 10.12 86.0931 10.12C84.1971 10.12 82.7571 11.032 82.0131 11.92V5.992H78.9651V22H82.0131V14.2C82.5411 13.504 83.4771 12.832 84.6531 12.832C85.9731 12.832 86.8131 13.336 86.8131 14.944V22H89.8611ZM102.895 22V14.512C102.895 11.176 100.471 10.12 97.831 10.12C96.007 10.12 94.183 10.696 92.767 11.944L93.919 13.984C94.903 13.072 96.055 12.616 97.303 12.616C98.839 12.616 99.847 13.384 99.847 14.56V16.12C99.079 15.208 97.711 14.704 96.175 14.704C94.327 14.704 92.143 15.736 92.143 18.448C92.143 21.04 94.327 22.288 96.175 22.288C97.687 22.288 99.055 21.736 99.847 20.8V22H102.895ZM97.399 20.224C96.199 20.224 95.215 19.6 95.215 18.52C95.215 17.392 96.199 16.768 97.399 16.768C98.383 16.768 99.343 17.104 99.847 17.776V19.216C99.343 19.888 98.383 20.224 97.399 20.224ZM116.79 22V13.816C116.79 11.56 115.566 10.12 113.022 10.12C111.126 10.12 109.71 11.032 108.966 11.92V10.408H105.918V22H108.966V14.2C109.47 13.504 110.406 12.832 111.606 12.832C112.902 12.832 113.742 13.384 113.742 14.992V22H116.79ZM44.896 51C49.912 51 53.392 47.832 53.392 43.008C53.392 38.184 49.912 34.992 44.896 34.992H38.584V51H44.896ZM44.896 48H41.992V37.992H44.896C48.184 37.992 49.912 40.176 49.912 43.008C49.912 45.72 48.064 48 44.896 48ZM61.1866 51.288C62.9866 51.288 64.8106 50.736 65.9626 49.68L64.6186 47.712C63.8746 48.432 62.5066 48.864 61.5226 48.864C59.5546 48.864 58.3786 47.64 58.1866 46.176H66.8026V45.504C66.8026 41.712 64.4506 39.12 60.9946 39.12C57.4666 39.12 54.9946 41.832 54.9946 45.192C54.9946 48.912 57.6586 51.288 61.1866 51.288ZM63.8506 44.112H58.1386C58.2826 42.96 59.0986 41.544 60.9946 41.544C63.0106 41.544 63.7786 43.008 63.8506 44.112ZM86.8328 51V48H79.1048L86.6648 37.728V34.992H74.6408V37.992H82.2008L74.6408 48.24V51H86.8328ZM90.8599 38.16C91.8679 38.16 92.6839 37.344 92.6839 36.336C92.6839 35.328 91.8679 34.536 90.8599 34.536C89.8759 34.536 89.0359 35.328 89.0359 36.336C89.0359 37.344 89.8759 38.16 90.8599 38.16ZM92.3959 51V39.408H89.3479V51H92.3959ZM98.4663 51V34.992H95.4183V51H98.4663ZM107.777 51L112.433 39.408H109.145L106.121 47.472L103.097 39.408H99.8326L104.489 51H107.777ZM123.801 51V43.512C123.801 40.176 121.377 39.12 118.737 39.12C116.913 39.12 115.089 39.696 113.673 40.944L114.825 42.984C115.809 42.072 116.961 41.616 118.209 41.616C119.745 41.616 120.753 42.384 120.753 43.56V45.12C119.985 44.208 118.617 43.704 117.081 43.704C115.233 43.704 113.049 44.736 113.049 47.448C113.049 50.04 115.233 51.288 117.081 51.288C118.593 51.288 119.961 50.736 120.753 49.8V51H123.801ZM118.305 49.224C117.105 49.224 116.121 48.6 116.121 47.52C116.121 46.392 117.105 45.768 118.305 45.768C119.289 45.768 120.249 46.104 120.753 46.776V48.216C120.249 48.888 119.289 49.224 118.305 49.224Z" fill="#4A4A4A"/>
</svg>
